# xmcd
#
# Track frame offsets: 
#        150
#        10291
#        21257
#        33437
#        46148
#        57276
#        67376
#        76700
#        88610
#        100601
#        112835
#        120676
#        131478
#        140530
#        153200
#        162673
#        174705
#        183377
#        195421
#        204922
#        215867
#        226998
#
# Disc length: 3170 seconds
#
# Revision: 0
# Processed by: cddbd v1.5.2PL0 Copyright (c) Steve Scherf et al.
# Submitted via: ExactAudioCopy v0.95b4
#
DISCID=2a0c6016
DTITLE=Johnny Cash - The Johnny Cash Collection Vol.2
DYEAR=1900
DGENRE=Country
TTITLE0=GET RHYTM
TTITLE1=BELSHAZAH
TTITLE2=GOODNIGHT IRENE
TTITLE3=GIVE MY LOVE TO ROSE
TTITLE4=OH LONESOME ME
TTITLE5=BALLAD OF A TEENAGE QUEEN
TTITLE6=BLUE TRAIN
TTITLE7=SO DOGGONE LONESOME
TTITLE8=PORT OF LONELY HEARTS
TTITLE9=YOU´RE THE NEAREST THING TO HEAVEN
TTITLE10=HEY GOOD LOOKING
TTITLE11=TRAIN OF LOVE
TTITLE12=TWO TIMIN´WOMAN
TTITLE13=NEXT IN LINE
TTITLE14=LUTHER PLAYED THE BOOGIE
TTITLE15=THANKS A LOT
TTITLE16=I FORGOT TO REMEMBER TO FORGET
TTITLE17=HOME OF THE BLUES
TTITLE18=DOWN THE STREET TO 301
TTITLE19=I HEARD THAT LONESOME WHISTLE
TTITLE20=I LOVE YOU BECAUSE
TTITLE21=FOLLS HALL OF FAME
EXTD=
EXTT0=
EXTT1=
EXTT2=
EXTT3=
EXTT4=
EXTT5=
EXTT6=
EXTT7=
EXTT8=
EXTT9=
EXTT10=
EXTT11=
EXTT12=
EXTT13=
EXTT14=
EXTT15=
EXTT16=
EXTT17=
EXTT18=
EXTT19=
EXTT20=
EXTT21=
PLAYORDER=
